<?xml version="1.0" encoding="UTF-8" standalone="no"?>
<!-- Created with Inkscape (http://www.inkscape.org/) -->

<svg
   xmlns:dc="http://purl.org/dc/elements/1.1/"
   xmlns:cc="http://creativecommons.org/ns#"
   xmlns:rdf="http://www.w3.org/1999/02/22-rdf-syntax-ns#"
   xmlns:svg="http://www.w3.org/2000/svg"
   xmlns="http://www.w3.org/2000/svg"
   xmlns:sodipodi="http://sodipodi.sourceforge.net/DTD/sodipodi-0.dtd"
   xmlns:inkscape="http://www.inkscape.org/namespaces/inkscape"
   width="100"
   height="100"
   viewBox="0 0 26.458333 26.458334"
   version="1.1"
   id="svg8"
   inkscape:version="0.92.3 (2405546, 2018-03-11)"
   sodipodi:docname="manual.svg">
  <defs
     id="defs2" />
  <sodipodi:namedview
     id="base"
     pagecolor="#ffffff"
     bordercolor="#666666"
     borderopacity="1.0"
     inkscape:pageopacity="0.0"
     inkscape:pageshadow="2"
     inkscape:zoom="5.6568543"
     inkscape:cx="-27.36914"
     inkscape:cy="54.441095"
     inkscape:document-units="mm"
     inkscape:current-layer="layer1"
     showgrid="false"
     units="px"
     inkscape:window-width="1920"
     inkscape:window-height="1012"
     inkscape:window-x="1920"
     inkscape:window-y="0"
     inkscape:window-maximized="1" />
  <metadata
     id="metadata5">
    <rdf:RDF>
      <cc:Work
         rdf:about="">
        <dc:format>image/svg+xml</dc:format>
        <dc:type
           rdf:resource="http://purl.org/dc/dcmitype/StillImage" />
        <dc:title></dc:title>
      </cc:Work>
    </rdf:RDF>
  </metadata>
  <g
     inkscape:label="Layer 1"
     inkscape:groupmode="layer"
     id="layer1"
     transform="translate(0,-270.54165)"
     style="display:inline">
    <path
       style="fill:none;stroke:#000000;stroke-width:1.16499996;stroke-linecap:butt;stroke-linejoin:miter;stroke-miterlimit:4;stroke-dasharray:none;stroke-opacity:1"
       d="M 0.72886309,286.02966 13.890625,295.1101 25.088169,283.77082"
       id="path852"
       inkscape:connector-curvature="0"
       sodipodi:nodetypes="ccc" />
    <path
       style="fill:none;stroke:#ffffff;stroke-width:1.16499996;stroke-linecap:butt;stroke-linejoin:miter;stroke-miterlimit:4;stroke-dasharray:none;stroke-opacity:1"
       d="m 0.64061657,284.56349 13.13721243,9.04998 10.487609,-10.6544"
       id="path852-3"
       inkscape:connector-curvature="0"
       sodipodi:nodetypes="ccc" />
    <path
       style="fill:#094e8f;fill-opacity:1;stroke:#094e8f;stroke-width:1.16499996;stroke-linecap:butt;stroke-linejoin:miter;stroke-miterlimit:4;stroke-dasharray:none;stroke-opacity:1"
       d="m 1.1600883,283.51601 12.4732157,8.59896 11.197545,-11.33928 -11.734642,-8.93245 z"
       id="path852-3-6"
       inkscape:connector-curvature="0" />
    <path
       style="fill:#094e8f;fill-opacity:1;stroke:#094e8f;stroke-width:0.1802946px;stroke-linecap:butt;stroke-linejoin:miter;stroke-opacity:1"
       d="m 0.33953758,283.5985 0.14389118,2.86381 0.37627799,0.258 -0.0575613,-2.86856"
       id="path887"
       inkscape:connector-curvature="0"
       sodipodi:nodetypes="cccc" />
    <text
       xml:space="preserve"
       style="font-style:normal;font-variant:normal;font-weight:normal;font-stretch:normal;font-size:10.58333302px;line-height:1.25;font-family:ori1Uni;-inkscape-font-specification:ori1Uni;letter-spacing:0px;word-spacing:0px;fill:#000000;fill-opacity:1;stroke:none;stroke-width:0.26458332"
       x="9.921875"
       y="278.5264"
       id="text847"><tspan
         sodipodi:role="line"
         id="tspan845"
         x="9.921875"
         y="286.8801"
         style="font-style:normal;font-variant:normal;font-weight:normal;font-stretch:normal;font-family:ori1Uni;-inkscape-font-specification:ori1Uni;stroke-width:0.26458332"></tspan></text>
    <text
       xml:space="preserve"
       style="font-style:normal;font-variant:normal;font-weight:normal;font-stretch:normal;font-size:10.58333302px;line-height:1.25;font-family:Ubuntu;-inkscape-font-specification:Ubuntu;letter-spacing:0px;word-spacing:0px;fill:#000000;fill-opacity:1;stroke:none;stroke-width:0.26458332"
       x="12.236979"
       y="278.66815"
       id="text851"><tspan
         sodipodi:role="line"
         id="tspan849"
         x="12.236979"
         y="288.53702"
         style="font-style:normal;font-variant:normal;font-weight:normal;font-stretch:normal;font-family:Ubuntu;-inkscape-font-specification:Ubuntu;stroke-width:0.26458332" /></text>
    <g
       aria-label="?
"
       style="font-style:normal;font-variant:normal;font-weight:normal;font-stretch:normal;font-size:10.58333302px;line-height:1.25;font-family:ubuntu;-inkscape-font-specification:ubuntu;letter-spacing:0px;word-spacing:0px;fill:#ffffff;fill-opacity:1;stroke:none;stroke-width:0.26458332"
       id="text855"
       transform="matrix(1.6124445,1.1041926,-1.1761965,1.5137346,319.85046,-152.60269)">
      <path
         d="m 12.47208,274.82488 q -0.6985,0 -1.36525,0.35983 l -0.275167,-0.762 q 0.359834,-0.1905 0.804334,-0.30692 0.455083,-0.11641 0.963083,-0.11641 0.60325,0 0.98425,0.16933 0.391583,0.15875 0.624417,0.41275 0.232833,0.254 0.317499,0.5715 0.09525,0.30692 0.09525,0.59267 0,0.35983 -0.137583,0.64558 -0.137583,0.27517 -0.338666,0.51858 -0.201084,0.24342 -0.4445,0.46567 -0.243417,0.22225 -0.4445,0.46567 -0.201084,0.23283 -0.338667,0.51858 -0.137583,0.27517 -0.137583,0.62442 0,0.0529 0,0.11641 0,0.0635 0.01058,0.11642 h -0.8255 q -0.04233,-0.21167 -0.04233,-0.4445 0,-0.33867 0.116416,-0.61383 0.127,-0.27517 0.3175,-0.508 0.1905,-0.24342 0.402167,-0.4445 0.211667,-0.21167 0.402167,-0.42334 0.1905,-0.21166 0.306916,-0.4445 0.127,-0.23283 0.127,-0.508 0,-0.4445 -0.28575,-0.71966 -0.28575,-0.28575 -0.836083,-0.28575 z m 0.66675,6.10658 q 0,0.28575 -0.1905,0.49742 -0.1905,0.21166 -0.518583,0.21166 -0.328084,0 -0.518584,-0.21166 -0.1905,-0.21167 -0.1905,-0.49742 0,-0.28575 0.1905,-0.49742 0.1905,-0.21166 0.518584,-0.21166 0.328083,0 0.518583,0.21166 0.1905,0.21167 0.1905,0.49742 z"
         style="fill:#ffffff;fill-opacity:1;stroke-width:0.26458332"
         id="path859"
         inkscape:connector-curvature="0" />
    </g>
    <path
       style="fill:#ffffff;fill-opacity:1;stroke:#ffffff;stroke-width:0;stroke-miterlimit:4;stroke-dasharray:none;stroke-opacity:1"
       d="m 3.3967095,51.437356 c -0.00836,-0.411315 -0.00835,-0.406937 -9.12e-4,-0.404083 0.013812,0.0053 0.3420639,0.222507 0.3419132,0.226744 -2.195e-4,0.0062 -0.3211854,0.366861 -0.326368,0.368496 -0.00298,9.38e-4 -0.012843,-0.102996 -0.014633,-0.191157 z"
       id="path4565"
       inkscape:connector-curvature="0"
       transform="matrix(0.26458333,0,0,0.26458333,0,270.54165)"
       sodipodi:nodetypes="ccccc" />
    <path
       style="display:inline;fill:#000000;fill-opacity:1;stroke:#090000;stroke-width:0.02632263;stroke-miterlimit:4;stroke-dasharray:none;stroke-opacity:1"
       d="m 3.5153265,57.331918 c -0.00483,-0.179705 -0.018664,-0.903218 -0.017411,-0.910769 0.00101,-0.0061 0.047001,0.02401 0.2433562,0.159301 0.13316,0.09175 0.2419527,0.168425 0.2417617,0.17039 -1.911e-4,0.002 -0.1038132,0.153454 -0.2302713,0.336642 -0.1264582,0.183189 -0.2310325,0.334751 -0.2323874,0.336806 -0.00135,0.0021 -0.00363,-0.03951 -0.00505,-0.09237 z"
       id="path889"
       inkscape:connector-curvature="0"
       transform="matrix(0.26458333,0,0,0.26458333,0,270.54165)" />
  </g>
</svg>
