<?xml version="1.0" encoding="UTF-8" standalone="no"?>
<!-- Created with Inkscape (http://www.inkscape.org/) -->

<svg
   xmlns:dc="http://purl.org/dc/elements/1.1/"
   xmlns:cc="http://creativecommons.org/ns#"
   xmlns:rdf="http://www.w3.org/1999/02/22-rdf-syntax-ns#"
   xmlns:svg="http://www.w3.org/2000/svg"
   xmlns="http://www.w3.org/2000/svg"
   xmlns:sodipodi="http://sodipodi.sourceforge.net/DTD/sodipodi-0.dtd"
   xmlns:inkscape="http://www.inkscape.org/namespaces/inkscape"
   width="100"
   height="100"
   viewBox="0 0 26.458333 26.458334"
   version="1.1"
   id="svg8"
   inkscape:version="0.92.3 (2405546, 2018-03-11)"
   sodipodi:docname="refresh.svg">
  <defs
     id="defs2" />
  <sodipodi:namedview
     id="base"
     pagecolor="#ffffff"
     bordercolor="#666666"
     borderopacity="1.0"
     inkscape:pageopacity="0.0"
     inkscape:pageshadow="2"
     inkscape:zoom="7.9195959"
     inkscape:cx="42.471627"
     inkscape:cy="52.498123"
     inkscape:document-units="mm"
     inkscape:current-layer="layer2"
     showgrid="false"
     units="px"
     inkscape:window-width="1920"
     inkscape:window-height="1012"
     inkscape:window-x="1920"
     inkscape:window-y="0"
     inkscape:window-maximized="1" />
  <metadata
     id="metadata5">
    <rdf:RDF>
      <cc:Work
         rdf:about="">
        <dc:format>image/svg+xml</dc:format>
        <dc:type
           rdf:resource="http://purl.org/dc/dcmitype/StillImage" />
        <dc:title></dc:title>
      </cc:Work>
    </rdf:RDF>
  </metadata>
  <g
     inkscape:groupmode="layer"
     id="layer2"
     inkscape:label="Layer 2"
     style="display:inline">
    <path
       style="display:inline;fill:#6eb1ff;fill-opacity:1;stroke:#4364d1;stroke-width:0.86500001;stroke-linecap:butt;stroke-linejoin:miter;stroke-miterlimit:4;stroke-dasharray:none;stroke-opacity:1"
       d="m 17.578682,8.29879 -5.11724,5.764912 12.22758,0.10023 -0.06682,-12.795512 -4.147467,3.9314543"
       id="path853"
       inkscape:connector-curvature="0"
       sodipodi:nodetypes="ccccc" />
    <path
       style="display:inline;fill:#6eb1ff;fill-opacity:1;stroke:#4364d1;stroke-width:3.66614175;stroke-miterlimit:4;stroke-dasharray:none;stroke-opacity:1"
       d="M 49.044922,6.3964844 C 35.002544,6.2289279 21.650297,12.321016 12.787109,22.939453 -1.1171668,39.598361 -0.9574754,63.52665 13.167969,80.007812 27.292983,96.489015 51.420163,100.89893 70.710938,90.525391 69.889124,83.877855 68.128344,81.762412 66.63644,73.090014 61.206768,75.04921 58.394606,75.652048 48.927734,76.964844 34.134498,76.964545 22.142419,65.331861 22.142578,50.982422 22.142419,36.632983 31.578479,24.085778 46.371715,24.085479 c 5.487718,0.411023 10.385243,2.074283 14.151362,3.856206 2.543761,1.20357 4.571363,2.461279 5.916037,3.423821 l 6.164467,-6.383421 4.781245,-4.95108 C 73.470545,13.620881 59.567842,6.2192513 49.044922,6.3964844 Z"
       id="path828"
       inkscape:connector-curvature="0"
       sodipodi:nodetypes="ccccccccscccc"
       transform="scale(0.26458333)" />
  </g>
</svg>
