<?xml version="1.0" encoding="UTF-8" standalone="no"?>
<!-- Created with Inkscape (http://www.inkscape.org/) -->

<svg
   xmlns:dc="http://purl.org/dc/elements/1.1/"
   xmlns:cc="http://creativecommons.org/ns#"
   xmlns:rdf="http://www.w3.org/1999/02/22-rdf-syntax-ns#"
   xmlns:svg="http://www.w3.org/2000/svg"
   xmlns="http://www.w3.org/2000/svg"
   xmlns:sodipodi="http://sodipodi.sourceforge.net/DTD/sodipodi-0.dtd"
   xmlns:inkscape="http://www.inkscape.org/namespaces/inkscape"
   width="100"
   height="100"
   viewBox="0 0 26.458333 26.458333"
   version="1.1"
   id="svg4609"
   sodipodi:docname="spotIcon.svg"
   inkscape:version="0.92.3 (2405546, 2018-03-11)">
  <defs
     id="defs4603" />
  <sodipodi:namedview
     id="base"
     pagecolor="#ffffff"
     bordercolor="#666666"
     borderopacity="1.0"
     inkscape:pageopacity="0.0"
     inkscape:pageshadow="2"
     inkscape:zoom="5.6568543"
     inkscape:cx="16.095901"
     inkscape:cy="61.072302"
     inkscape:document-units="mm"
     inkscape:current-layer="layer1"
     showgrid="false"
     units="px"
     inkscape:window-width="1920"
     inkscape:window-height="1012"
     inkscape:window-x="1920"
     inkscape:window-y="0"
     inkscape:window-maximized="1" />
  <metadata
     id="metadata4606">
    <rdf:RDF>
      <cc:Work
         rdf:about="">
        <dc:format>image/svg+xml</dc:format>
        <dc:type
           rdf:resource="http://purl.org/dc/dcmitype/StillImage" />
        <dc:title></dc:title>
      </cc:Work>
    </rdf:RDF>
  </metadata>
  <g
     inkscape:groupmode="layer"
     id="layer2"
     inkscape:label="Layer 2"
     style="display:inline">
    <circle
       style="display:inline;fill:#00e2df;fill-opacity:1;stroke:#ffffff;stroke-width:0.27000001;stroke-miterlimit:4;stroke-dasharray:none;stroke-opacity:1"
       id="path4611-3"
       cx="13.264167"
       cy="13.194167"
       r="13.229167" />
    <circle
       style="display:inline;fill:#000000;fill-opacity:1;stroke:none;stroke-width:0.13229206;stroke-opacity:1"
       id="path5156-6"
       cx="12.999621"
       cy="13.194137"
       r="6.6146216" />
  </g>
  <g
     inkscape:label="Layer 1"
     inkscape:groupmode="layer"
     id="layer1"
     style="display:inline">
    <circle
       style="fill:#00e2df;fill-opacity:1;stroke:#ffffff;stroke-width:0.27000001;stroke-miterlimit:4;stroke-dasharray:none;stroke-opacity:1"
       id="path4611"
       cx="13.229167"
       cy="283.77084"
       r="13.229167" />
    <circle
       style="fill:#000000;fill-opacity:1;stroke:none;stroke-width:0.13229206;stroke-opacity:1"
       id="path5156"
       cx="12.964622"
       cy="283.77081"
       r="6.6146216" />
    <path
       style="fill:#e2e2df;fill-opacity:1;stroke:#ffffff;stroke-width:0;stroke-miterlimit:4;stroke-dasharray:none;stroke-opacity:1"
       d="M 61.97894,64.545274 C 59.041215,64.351127 57.020831,63.841836 56.65421,63.203034 56.533358,62.992463 56.271,62.86231 55.035554,62.400037 49.613531,60.371251 43.561945,58.428482 39.163673,57.304614 l -1.830488,-0.467736 -0.299938,-0.407352 c -0.437574,-0.594274 -1.26526,-2.287567 -1.419382,-2.903788 -0.386548,-1.545526 0.0621,-2.563076 1.417531,-3.215012 1.062115,-0.510857 1.404325,-1.011958 1.466242,-2.147034 0.06095,-1.117276 -0.378922,-2.313403 -1.485454,-4.039368 -0.228438,-0.356317 -0.46209,-0.637567 -0.519226,-0.625 -0.133327,0.02933 -9.485227,6.613004 -9.490427,6.681199 -0.0021,0.02816 0.287391,0.248275 0.643417,0.489138 0.842222,0.569791 2.626586,2.356754 3.427879,3.432871 1.410447,1.894199 2.434221,3.861467 3.168166,6.087906 0.809421,2.455398 0.797878,3.218015 -0.05512,3.641373 -0.427773,0.212312 -0.543356,0.22366 -3.168787,0.311109 -2.917172,0.09717 -5.65873,0.105012 -6.008625,0.0172 l -0.214657,-0.05388 0.522521,-1.050961 c 0.721139,-1.45045 0.990274,-2.505422 0.997,-3.908104 0.0082,-1.700731 -0.460292,-2.963551 -1.544831,-4.164487 -1.535743,-1.700569 -4.796109,-3.321432 -7.241831,-3.600215 -1.251999,-0.142713 -2.617498,0.392001 -3.212313,1.257904 -0.128896,0.187642 -0.14805,0.188684 -1.826173,0.09936 -0.932751,-0.04965 -1.706111,-0.09831 -1.718577,-0.108129 -0.01247,-0.0098 -0.06556,-0.249889 -0.117984,-0.533484 -0.130972,-0.70849 0.02642,-1.582501 0.430388,-2.389987 0.543812,-1.087015 2.016837,-2.468361 3.541285,-3.320882 l 0.593517,-0.331913 0.555587,0.435956 c 1.943812,1.525263 4.136962,2.170748 6.939516,2.042428 3.080769,-0.14106 6.169077,-1.228511 8.599526,-3.028056 0.805239,-0.596212 2.017067,-1.781882 2.414511,-2.362392 l 0.25511,-0.372614 -0.185904,-0.300797 c -0.3663,-0.592688 -1.482648,-1.00351 -3.360029,-1.236511 -1.285855,-0.159587 -7.571951,-0.14293 -9.849161,0.0261 l -1.093579,0.394788 -0.244079,-0.564359 c 0.09961,-0.775766 -0.021,-4.102742 -0.02002,-5.91592 0.0014,-2.651338 -0.239079,-7.144475 -0.506065,-9.453973 -0.0373,-0.322697 -0.02442,-0.469472 0.0392,-0.446428 0.05213,0.01888 0.467401,0.536562 0.922827,1.150401 1.560077,2.102732 4.146792,4.487226 6.777659,6.247805 6.09426,4.078287 14.463572,6.859177 24.720211,8.213843 1.941257,0.256395 1.839216,0.27024 2.11931,-0.287541 0.539002,-1.073369 1.504224,-2.175781 2.136217,-2.439844 1.264759,-0.52845 2.601289,0.717642 3.894199,3.630695 0.510178,1.14948 0.869921,1.670724 1.798149,2.605404 4.252067,4.281614 11.679118,7.093988 21.046199,7.969487 2.302003,0.215158 3.593105,0.203978 4.732143,-0.04098 2.440671,-0.524876 5.419658,-1.751701 8.198299,-3.376272 L 95.49343,48.721 95.43342,49.068018 c -0.644654,3.727715 -2.894286,7.453155 -6.053053,10.023984 -2.250997,1.832023 -5.351431,3.406736 -8.618324,4.377256 -1.176861,0.349618 -3.722521,0.616297 -9.031279,0.946101 -2.690919,0.167171 -8.098096,0.239207 -9.75183,0.129917 z"
       id="path860"
       inkscape:connector-curvature="0"
       transform="scale(0.26458333)"
       sodipodi:nodetypes="ccssccsscsccsssccccsccscccccccssscccssccccccsscsscscsccssscc" />
    <path
       style="fill:#e2e2df;fill-opacity:1;stroke:#ffffff;stroke-width:0;stroke-miterlimit:4;stroke-dasharray:none;stroke-opacity:1"
       d="m 62.476621,64.578335 c -0.0058,-0.0055 -0.266202,-0.02786 -0.578718,-0.04958 -1.291468,-0.08979 -1.95428,-0.17679 -2.998891,-0.393608 -0.43405,-0.09009 -0.8389,-0.165998 -0.899667,-0.168684 -0.06077,-0.0027 -0.110485,-0.03025 -0.110485,-0.06124 0,-0.031 -0.04262,-0.04001 -0.0947,-0.02002 -0.05209,0.01999 -0.0947,0.0088 -0.0947,-0.02481 0,-0.03363 -0.02494,-0.06115 -0.05542,-0.06115 -0.03048,0 -0.165434,-0.04789 -0.299889,-0.10643 -0.134455,-0.05854 -0.265773,-0.101153 -0.291816,-0.0947 -0.02604,0.0064 -0.04735,-0.01668 -0.04735,-0.05141 0,-0.03472 -0.02841,-0.06314 -0.06313,-0.06314 -0.03472,0 -0.119956,-0.05682 -0.189404,-0.126269 -0.06945,-0.06945 -0.108585,-0.126269 -0.08697,-0.126269 0.120414,0 -0.179044,-0.226292 -0.479308,-0.362199 -0.596439,-0.269963 -0.773073,-0.345274 -0.846471,-0.360908 -0.039,-0.0083 -0.156143,-0.0507 -0.260315,-0.09421 -0.104172,-0.04351 -0.217814,-0.08612 -0.252538,-0.0947 -0.03472,-0.0086 -0.143113,-0.04837 -0.240865,-0.08843 -0.09775,-0.04006 -0.213761,-0.07284 -0.257799,-0.07284 -0.04404,0 -0.101377,-0.02131 -0.12742,-0.04735 -0.02604,-0.02604 -0.06629,-0.04973 -0.08944,-0.05264 -0.02315,-0.0029 -0.127321,-0.04124 -0.231493,-0.08519 -0.104172,-0.04394 -0.217814,-0.08626 -0.252538,-0.09403 -0.03472,-0.0078 -0.175812,-0.06289 -0.313529,-0.122477 -0.137718,-0.05959 -0.293976,-0.11709 -0.34724,-0.127782 -0.05326,-0.01069 -0.171442,-0.05015 -0.262615,-0.08768 -0.09117,-0.03753 -0.290047,-0.101473 -0.441942,-0.142093 -0.151894,-0.04062 -0.304583,-0.09573 -0.339307,-0.122463 -0.03472,-0.02673 -0.219392,-0.09719 -0.410374,-0.156562 -0.190982,-0.05938 -0.389856,-0.124605 -0.441942,-0.144954 -0.05209,-0.02035 -0.11601,-0.043 -0.142053,-0.05034 -0.02604,-0.0073 -0.06156,-0.02045 -0.07892,-0.02913 -0.01736,-0.0087 -0.05288,-0.02179 -0.07892,-0.02913 -0.02604,-0.0073 -0.08997,-0.03139 -0.142053,-0.05344 -0.19774,-0.08372 -3.952164,-1.320914 -4.079705,-1.344382 -0.07359,-0.01354 -0.407411,-0.123664 -0.74183,-0.244718 -0.334419,-0.121055 -0.608034,-0.206819 -0.608034,-0.190587 0,0.01623 -0.14139,-0.02622 -0.3142,-0.09433 -0.17281,-0.06812 -0.385654,-0.136803 -0.472986,-0.15264 -0.166232,-0.03014 -0.410762,-0.105903 -0.964798,-0.298911 -0.182301,-0.06351 -0.331456,-0.103112 -0.331456,-0.08801 0,0.0151 -0.09944,-0.01409 -0.220971,-0.06487 -0.121534,-0.05078 -0.220971,-0.07797 -0.220971,-0.06042 0,0.01755 -0.106539,-0.0081 -0.236754,-0.05691 -0.201185,-0.07547 -0.582051,-0.178578 -0.6302,-0.170612 -0.0081,0.0013 -0.11459,-0.03934 -0.236754,-0.09039 -0.122164,-0.05104 -0.222117,-0.07967 -0.222117,-0.06361 0,0.01606 -0.0993,-0.0123 -0.22067,-0.06301 -0.121368,-0.05071 -0.242113,-0.09269 -0.268322,-0.0933 -0.02621,-6.32e-4 -0.161183,-0.03167 -0.299944,-0.06903 -0.13876,-0.03736 -0.302121,-0.07916 -0.363023,-0.09288 -0.135844,-0.03061 -0.228536,-0.05497 -0.71051,-0.186709 -0.208344,-0.05695 -0.428525,-0.114876 -0.489292,-0.128728 -0.06077,-0.01385 -0.167307,-0.03939 -0.236755,-0.05675 l -0.252538,-0.06313 -0.252538,-0.06314 -0.252538,-0.06313 c -0.06945,-0.01736 -0.175988,-0.04325 -0.236755,-0.05753 -0.317672,-0.07464 -0.647129,-0.28193 -0.647129,-0.407158 0,-0.03958 -0.02841,-0.07196 -0.06313,-0.07196 -0.03472,0 -0.06314,-0.04262 -0.06314,-0.0947 0,-0.05209 -0.02841,-0.0947 -0.06313,-0.0947 -0.03472,0 -0.06314,-0.04262 -0.06314,-0.0947 0,-0.05209 -0.03315,-0.0947 -0.07366,-0.0947 -0.04051,0 -0.05735,-0.01631 -0.03742,-0.03624 0.01993,-0.01993 -0.07326,-0.229482 -0.207103,-0.465667 -0.347861,-0.613876 -0.807382,-1.658195 -0.928476,-2.110075 -0.121596,-0.453758 -0.130566,-1.700177 -0.01301,-1.807436 0.01903,-0.01736 0.111164,-0.164133 0.204743,-0.326156 0.200043,-0.346357 0.544435,-0.656066 1.006582,-0.905214 0.182843,-0.09857 0.346646,-0.195663 0.364008,-0.215757 0.01736,-0.02009 0.137241,-0.09026 0.266398,-0.155926 0.329411,-0.167478 0.690378,-0.576937 0.868752,-0.985463 0.125516,-0.287466 0.152261,-0.455922 0.155362,-0.978586 0.0039,-0.651253 -0.04165,-1.011581 -0.190027,-1.504489 -0.111578,-0.370656 -0.593971,-1.349607 -0.970213,-1.968914 -0.141098,-0.232252 -0.256541,-0.447783 -0.256541,-0.478957 0,-0.03118 -0.02841,-0.05668 -0.06314,-0.05668 -0.03472,0 -0.06313,-0.02809 -0.06313,-0.06241 0,-0.03433 -0.04109,-0.112456 -0.09132,-0.17362 -0.05022,-0.06116 -0.142557,-0.175182 -0.205187,-0.253372 l -0.113873,-0.142165 -0.410374,0.283359 c -0.225706,0.155848 -0.467196,0.328049 -0.536644,0.38267 -0.06945,0.05462 -0.232809,0.159675 -0.363024,0.233454 -0.130214,0.07378 -0.236754,0.157324 -0.236754,0.185654 0,0.02833 -0.0358,0.05151 -0.07956,0.05151 -0.04376,0 -0.1503,0.06392 -0.236755,0.142052 -0.08646,0.07813 -0.231454,0.180298 -0.322219,0.227041 -0.09076,0.04674 -0.23868,0.153283 -0.3287,0.236755 -0.09002,0.08347 -0.189176,0.151766 -0.220344,0.151766 -0.03117,0 -0.126264,0.06392 -0.211321,0.142053 -0.08506,0.07813 -0.2337,0.183673 -0.330318,0.234543 -0.09662,0.05087 -0.245715,0.157409 -0.331331,0.236754 -0.08562,0.07935 -0.178462,0.144265 -0.206326,0.144265 -0.02786,0 -0.126514,0.0703 -0.219221,0.156214 -0.09271,0.08592 -0.174985,0.151841 -0.182839,0.146495 -0.03648,-0.02482 -0.550924,0.35232 -0.550924,0.403886 0,0.03216 -0.02354,0.04392 -0.05231,0.02614 -0.02877,-0.01778 -0.136389,0.04447 -0.239154,0.138327 -0.102764,0.09386 -0.214175,0.182055 -0.247579,0.195988 -0.159055,0.06634 -0.534244,0.345259 -0.534244,0.397157 0,0.03216 -0.02354,0.04392 -0.05231,0.02614 -0.02877,-0.01778 -0.149515,0.05645 -0.268322,0.164968 -0.118806,0.108513 -0.216012,0.187307 -0.216012,0.175098 0,-0.01221 -0.120745,0.05771 -0.268322,0.155369 -0.147577,0.09766 -0.268321,0.202202 -0.268321,0.232312 0,0.03011 -0.03847,0.05474 -0.08548,0.05474 -0.04702,0 -0.161334,0.0703 -0.254041,0.156214 -0.09271,0.08592 -0.18919,0.161242 -0.214407,0.167386 -0.104036,0.02535 -0.519356,0.328644 -0.519356,0.37927 0,0.03011 -0.03847,0.05474 -0.08548,0.05474 -0.04702,0 -0.162122,0.07103 -0.255791,0.157837 -0.09367,0.08681 -0.197255,0.157836 -0.23019,0.157836 -0.03294,0 -0.05988,0.02841 -0.05988,0.06313 0,0.03472 -0.0358,0.06313 -0.07956,0.06313 -0.04376,0 -0.1503,0.06473 -0.236755,0.143846 -0.08646,0.07912 -0.251384,0.210221 -0.36651,0.291347 -0.200092,0.140999 -0.204266,0.152052 -0.09467,0.250745 0.163293,0.147052 0.840637,0.648285 0.840637,0.622067 0,-0.01205 0.176379,0.141308 0.391953,0.340796 0.215575,0.199488 0.418839,0.34609 0.451697,0.325783 0.03286,-0.02031 0.0426,-0.0092 0.02165,0.02471 -0.03665,0.0593 1.036946,1.179542 1.116204,1.164697 0.02134,-0.004 0.03769,0.0079 0.03633,0.02646 -0.0014,0.01855 0.188828,0.252935 0.422641,0.52086 0.233814,0.267924 0.565139,0.678907 0.736278,0.913294 0.17114,0.234387 0.336083,0.426158 0.36654,0.426158 0.03046,0 0.04828,0.02179 0.03959,0.04843 -0.02255,0.06919 0.396455,0.709189 0.464307,0.709189 0.0311,0 0.05071,0.02131 0.04357,0.04735 -0.02128,0.07762 0.200558,0.457725 0.26714,0.457725 0.03383,0 0.05815,0.02131 0.05404,0.04735 -0.01773,0.112273 0.01531,0.18979 0.136205,0.319552 0.0708,0.076 0.112838,0.138174 0.09342,0.138174 -0.01942,0 0.02267,0.113642 0.09353,0.252538 0.07086,0.138896 0.158345,0.252538 0.194412,0.252538 0.03607,0 0.04802,0.02841 0.02656,0.06313 -0.02146,0.03472 -0.0073,0.06313 0.03157,0.06313 0.03882,0 0.05303,0.02841 0.03157,0.06314 -0.02146,0.03472 -0.0073,0.06313 0.03157,0.06313 0.03882,0 0.05303,0.02841 0.03157,0.06314 -0.02146,0.03472 -0.0073,0.06313 0.03157,0.06313 0.03882,0 0.05303,0.02841 0.03157,0.06314 -0.02146,0.03472 -0.0073,0.06313 0.03157,0.06313 0.03882,0 0.05303,0.02841 0.03157,0.06314 -0.02146,0.03472 -0.0089,0.06313 0.02784,0.06313 0.03677,0 0.06002,0.02131 0.05166,0.04735 -0.02886,0.0899 0.215241,0.647129 0.283486,0.647129 0.03764,0 0.05181,0.01662 0.0315,0.03693 -0.05038,0.05038 0.07778,0.405008 0.146353,0.405008 0.03024,0 0.04003,0.03895 0.02176,0.08656 -0.01827,0.04761 0.0039,0.125738 0.04933,0.17362 0.0454,0.04788 0.08413,0.115469 0.08607,0.150193 0.0088,0.157058 0.110539,0.410375 0.164886,0.410375 0.03301,0 0.04475,0.02471 0.02608,0.0549 -0.03431,0.05551 0.203993,0.833771 0.273161,0.892114 0.02058,0.01736 0.04329,0.09038 0.05045,0.162256 0.0072,0.07188 0.04726,0.213932 0.08911,0.315673 0.04185,0.101741 0.0731,0.201494 0.06945,0.221674 -0.0036,0.02018 0.04944,0.247464 0.117991,0.505076 0.181476,0.682012 0.210804,1.180831 0.08913,1.515984 -0.05555,0.153025 -0.109375,0.320843 -0.119605,0.372929 -0.01023,0.05209 -0.0443,0.09658 -0.07572,0.09887 -0.112008,0.0082 -0.530625,0.241183 -0.530625,0.29536 0,0.03034 -0.02841,0.03761 -0.06314,0.01615 -0.03472,-0.02146 -0.09577,-0.01885 -0.135653,0.0058 -0.03989,0.02465 -0.274273,0.05497 -0.52086,0.06738 -0.246588,0.01241 -0.874499,0.05097 -1.395359,0.08569 -1.042296,0.06948 -6.68181,0.0909 -6.938971,0.02635 -0.135123,-0.03391 -0.150781,-0.05976 -0.09704,-0.160183 0.03525,-0.06586 0.04178,-0.120178 0.01451,-0.12071 -0.02726,-5.05e-4 -0.01909,-0.02184 0.01816,-0.04735 0.08281,-0.05671 0.891893,-1.776475 0.949813,-2.018903 0.02287,-0.09573 0.06425,-0.203174 0.09195,-0.238763 0.0277,-0.03559 0.06002,-0.135027 0.07181,-0.220971 0.01179,-0.08595 0.03898,-0.184674 0.06042,-0.219398 0.02144,-0.03472 0.05631,-0.190982 0.0775,-0.34724 0.02119,-0.156258 0.06669,-0.454568 0.101114,-0.662912 0.08077,-0.488908 0.07996,-1.465571 -0.0017,-1.988738 -0.277241,-1.777062 -1.161218,-3.099902 -2.90675,-4.349848 -0.332299,-0.237954 -0.666123,-0.452303 -0.74183,-0.476332 -0.07571,-0.02403 -0.137651,-0.06835 -0.137651,-0.09848 0,-0.03014 -0.09944,-0.09075 -0.220971,-0.134697 -0.121534,-0.04395 -0.22097,-0.104284 -0.22097,-0.134082 0,-0.0298 -0.02599,-0.03812 -0.05774,-0.01849 -0.03176,0.01963 -0.06727,0.01065 -0.07892,-0.01995 -0.03154,-0.08287 -0.788861,-0.450673 -0.834328,-0.405206 -0.02154,0.02154 -0.03916,0.006 -0.03916,-0.03449 0,-0.04051 -0.02285,-0.06655 -0.05077,-0.05787 -0.02792,0.0087 -0.148667,-0.03094 -0.268322,-0.08805 -0.397979,-0.189955 -0.528517,-0.240126 -1.19614,-0.459721 -2.300482,-0.756678 -3.960446,-0.555021 -5.020594,0.609915 l -0.293321,0.322314 -0.610255,-0.0052 c -0.33564,-0.0028 -0.993796,-0.02708 -1.46257,-0.05384 -0.468774,-0.02677 -0.951753,-0.05057 -1.073287,-0.05289 -0.231504,-0.0044 -0.386886,-0.130676 -0.333154,-0.270701 0.01738,-0.0453 0.0041,-0.117519 -0.0296,-0.160481 -0.07767,-0.09912 -0.03554,-1.542827 0.04742,-1.624911 0.01755,-0.01736 0.07043,-0.145209 0.117522,-0.284105 0.145102,-0.42799 0.4461,-0.982842 0.73347,-1.352058 0.495627,-0.636788 1.542022,-1.598375 2.27383,-2.089542 0.17362,-0.116528 0.329878,-0.231223 0.34724,-0.254878 0.01736,-0.02365 0.09532,-0.0629 0.173246,-0.08722 0.07792,-0.02432 0.177361,-0.07786 0.220971,-0.118994 0.04361,-0.04113 0.211416,-0.136964 0.3729,-0.212963 0.290151,-0.136553 0.294913,-0.13674 0.404376,-0.01578 0.06092,0.06732 0.147569,0.122397 0.192548,0.122397 0.04498,0 0.104499,0.03794 0.132267,0.08432 0.09908,0.165463 1.073943,0.794883 1.811929,1.169868 0.412727,0.209714 0.767662,0.378063 0.788744,0.37411 0.02108,-0.004 0.117202,0.02539 0.2136,0.06521 0.0964,0.03982 0.245085,0.08505 0.330415,0.100527 0.08533,0.01547 0.182237,0.04488 0.215349,0.06534 0.09201,0.05686 1.188162,0.270832 1.614945,0.315237 0.419547,0.04365 2.564544,0.04952 2.695201,0.0074 0.04549,-0.01468 0.295798,-0.04456 0.556228,-0.06641 0.260429,-0.02185 0.601356,-0.06879 0.757614,-0.104306 0.393041,-0.08934 0.507792,-0.113397 0.726047,-0.152211 0.104172,-0.01853 0.303046,-0.06564 0.441942,-0.104686 0.307637,-0.08649 0.387409,-0.107757 0.489292,-0.130426 0.0434,-0.0097 0.114432,-0.03974 0.157837,-0.06686 0.0434,-0.02711 0.07892,-0.03511 0.07892,-0.01777 0,0.03153 0.684428,-0.191898 1.04172,-0.340065 0.104172,-0.0432 0.246224,-0.100444 0.315672,-0.12721 0.221478,-0.08536 1.692739,-0.808106 2.020306,-0.992458 0.415975,-0.234109 1.06777,-0.666941 1.094331,-0.726705 0.01158,-0.02604 0.04912,-0.04735 0.08343,-0.04735 0.03431,0 0.100835,-0.03551 0.147832,-0.07892 0.047,-0.0434 0.222533,-0.190914 0.390081,-0.327799 0.337172,-0.275465 1.879013,-1.814226 2.062566,-2.058446 0.244743,-0.325632 0.253078,-0.400547 0.07401,-0.665167 -0.09206,-0.136052 -0.311917,-0.338821 -0.488563,-0.450598 -0.332076,-0.21013 -1.28553,-0.552279 -1.713773,-0.61499 -0.134267,-0.01966 -0.262114,-0.04677 -0.284106,-0.06024 -0.04054,-0.02483 -0.52636,-0.09032 -0.987001,-0.133048 -0.924225,-0.08573 -2.064702,-0.117179 -4.135312,-0.114015 -2.605365,0.004 -4.08669,0.04769 -6.029348,0.177908 -1.149757,0.07707 -0.626003,0.364559 -0.61027,0.227639 0.255849,-2.226604 -0.265643,-7.681075 -0.464036,-11.02305 -0.08006,-1.348668 -0.153882,-2.446527 -0.193153,-2.872621 -0.0176,-0.190982 -0.04398,-0.503498 -0.05863,-0.69448 -0.03381,-0.440882 -0.08829,-1.047284 -0.100228,-1.115578 -0.005,-0.02883 -0.0058,-0.142979 -0.0017,-0.253674 0.0057,-0.154741 0.03455,-0.199224 0.124606,-0.192441 0.06442,0.0049 0.11414,0.05281 0.110486,0.106562 -0.0038,0.05597 0.03382,0.08875 0.08806,0.07669 0.05209,-0.01158 0.07353,1.27e-4 0.04765,0.026 -0.04449,0.04449 0.172211,0.379559 0.38943,0.602131 0.05476,0.05611 0.142176,0.166129 0.194262,0.244491 0.05209,0.07836 0.123113,0.17452 0.157837,0.213686 0.03472,0.03917 0.337386,0.397919 0.672582,0.797229 1.195658,1.424356 3.140551,3.215976 4.777397,4.400897 0.370739,0.26838 0.688276,0.503122 0.705638,0.521649 0.08194,0.08744 0.831945,0.570131 0.885865,0.570131 0.03363,0 0.06115,0.02841 0.06115,0.06313 0,0.03472 0.02979,0.06314 0.0662,0.06314 0.03641,0 0.237294,0.113642 0.446406,0.252538 0.209112,0.138896 0.392964,0.252538 0.408561,0.252538 0.0156,0 0.148537,0.0778 0.295424,0.17288 0.146887,0.09509 0.338094,0.208996 0.424904,0.253138 0.08681,0.04414 0.299889,0.161353 0.473509,0.260469 0.358755,0.204807 2.741239,1.401085 3.219861,1.616736 0.17362,0.07823 0.457725,0.204614 0.631345,0.280858 0.17362,0.07624 0.365006,0.165254 0.425302,0.1978 0.0603,0.03254 0.136069,0.05917 0.168386,0.05917 0.03232,0 0.196062,0.0616 0.363879,0.136896 0.167818,0.07529 0.319329,0.14167 0.336691,0.147505 0.183,0.06151 0.570928,0.220732 0.709407,0.291176 0.0603,0.03067 0.145528,0.05594 0.189404,0.05616 0.04388,1.89e-4 0.152694,0.03844 0.241819,0.08495 0.08912,0.04651 0.245382,0.105346 0.34724,0.130749 0.101857,0.0254 0.270427,0.08607 0.374599,0.134822 0.225568,0.10556 2.084406,0.724095 2.2901,0.762038 0.07894,0.01456 0.284915,0.0822 0.457725,0.150321 0.17281,0.06811 0.3142,0.109056 0.3142,0.09098 0,-0.01808 0.05291,-0.0046 0.117573,0.03006 0.06467,0.03461 0.210632,0.07932 0.324369,0.09936 0.113736,0.02004 0.259702,0.06475 0.324368,0.09936 0.06466,0.03461 0.117573,0.04672 0.117573,0.02691 0,-0.0198 0.05242,-0.008 0.116502,0.02634 0.06408,0.03429 0.184821,0.07671 0.268322,0.09426 0.0835,0.01755 0.322283,0.0786 0.530626,0.135657 0.208344,0.05706 0.428526,0.115077 0.489293,0.128929 0.06077,0.01385 0.167307,0.03939 0.236755,0.05675 l 0.252538,0.06313 0.252538,0.06313 c 0.06945,0.01736 0.176098,0.04279 0.237001,0.05652 0.0609,0.01372 0.224262,0.055 0.363023,0.09172 0.13876,0.03673 0.330421,0.08232 0.425912,0.101319 0.225519,0.04487 0.363343,0.07497 0.883884,0.193033 0.07813,0.01772 0.213079,0.04584 0.299889,0.06248 0.08681,0.01665 0.214657,0.04311 0.284105,0.05881 0.710437,0.160622 1.307357,0.283865 1.515229,0.31284 0.138896,0.01936 0.323564,0.05111 0.410374,0.07055 0.365057,0.08176 0.805725,0.162632 1.04172,0.191182 0.138896,0.0168 0.323565,0.04551 0.410375,0.0638 0.08681,0.01828 0.257273,0.04701 0.378807,0.06383 0.121534,0.01682 0.263586,0.04301 0.315672,0.0582 0.05209,0.01518 0.236755,0.04317 0.410375,0.06218 0.17362,0.01902 0.386699,0.04881 0.473509,0.06622 0.228444,0.0458 1.043683,0.160568 1.799334,0.253309 0.17362,0.02131 0.41511,0.05181 0.536644,0.06778 0.121534,0.01597 0.411649,0.04517 0.644702,0.06488 l 0.423732,0.03584 0.176046,-0.28542 c 0.207337,-0.33615 0.519188,-0.905974 0.532791,-0.973533 0.0052,-0.02604 0.05497,-0.08195 0.1105,-0.124254 0.05553,-0.0423 0.08184,-0.07781 0.05847,-0.07892 -0.02337,-0.0011 0.03345,-0.08116 0.126269,-0.177903 0.09282,-0.09674 0.285506,-0.30272 0.428191,-0.457726 0.474954,-0.515968 0.875141,-0.840246 1.018168,-0.825039 0.0082,8.72e-4 0.12184,-0.03329 0.252538,-0.07591 0.259142,-0.08451 0.370277,-0.0879 0.534499,-0.01631 0.0591,0.02576 0.137234,0.02844 0.17362,0.006 0.03639,-0.02249 0.06616,-0.01646 0.06616,0.01339 0,0.04272 0.304926,0.217063 0.607073,0.3471 0.09133,0.0393 0.687717,0.651835 0.671901,0.690088 -0.0096,0.02326 0.05764,0.101391 0.149466,0.17362 0.09182,0.07223 0.148512,0.131324 0.125975,0.131324 -0.02254,0 0.03423,0.113642 0.126144,0.252538 0.09192,0.138896 0.193434,0.252538 0.225593,0.252538 0.03216,0 0.04155,0.02737 0.02087,0.06083 -0.02068,0.03346 0.02026,0.118689 0.09098,0.189404 0.07071,0.07071 0.12662,0.143747 0.124235,0.162294 -0.0084,0.06494 0.663517,1.38726 0.728196,1.433189 0.03593,0.02551 0.04507,0.04682 0.02032,0.04735 -0.09699,0.0021 0.525599,1.133419 0.852664,1.549427 0.19038,0.242152 0.615204,0.710177 0.944054,1.040055 0.534422,0.536094 0.761279,0.744156 1.360851,1.248103 0.09374,0.07879 0.21543,0.185326 0.270429,0.236755 0.055,0.05143 0.133128,0.09351 0.17362,0.09351 0.04049,0 0.07362,0.0293 0.07362,0.06511 0,0.03581 0.04572,0.08266 0.101589,0.1041 0.05587,0.02144 0.173665,0.105781 0.261757,0.187422 0.08809,0.08164 0.195596,0.148439 0.238896,0.148439 0.0433,0 0.09577,0.04442 0.116604,0.0987 0.02083,0.05429 0.06351,0.08286 0.09484,0.0635 0.03133,-0.01936 0.07395,0.009 0.0947,0.06313 0.02076,0.05409 0.06337,0.0825 0.0947,0.06313 0.03133,-0.01936 0.07395,0.009 0.0947,0.06313 0.02076,0.05409 0.06635,0.08066 0.101318,0.05905 0.03497,-0.02161 0.06358,-0.0092 0.06358,0.02757 0,0.03677 0.04262,0.06686 0.0947,0.06686 0.05209,0 0.0947,0.02394 0.0947,0.05319 0,0.02926 0.106539,0.107385 0.236754,0.17362 0.130215,0.06623 0.25096,0.135288 0.268322,0.153453 0.07269,0.07605 0.378807,0.25097 0.378807,0.216458 0,-0.02064 0.04464,0.0071 0.09921,0.06168 0.05457,0.05457 0.139797,0.09921 0.189404,0.09921 0.0496,0 0.09019,0.03009 0.09019,0.06686 0,0.03677 0.02841,0.0493 0.06313,0.02784 0.03472,-0.02146 0.06314,-0.01379 0.06314,0.01705 0,0.03084 0.149155,0.124848 0.331456,0.208913 0.182301,0.08407 0.340985,0.174329 0.352632,0.200589 0.01165,0.02626 0.04716,0.03169 0.07892,0.01206 0.03176,-0.01962 0.05774,-0.0039 0.05774,0.0349 0,0.03882 0.02841,0.05303 0.06313,0.03157 0.03472,-0.02146 0.06314,-0.0073 0.06314,0.03157 0,0.03882 0.02841,0.05303 0.06313,0.03157 0.03472,-0.02146 0.06314,-0.0089 0.06314,0.02784 0,0.03677 0.02131,0.06125 0.04735,0.05438 0.02604,-0.0069 0.253184,0.09286 0.504757,0.221605 0.251574,0.128744 0.471577,0.234169 0.488896,0.234278 0.04569,3.16e-4 0.474477,0.187516 0.695195,0.303553 0.104172,0.05477 0.189404,0.09115 0.189404,0.08084 0,-0.01832 0.177947,0.0503 0.577752,0.222788 0.10942,0.04721 0.226917,0.08583 0.261105,0.08583 0.03419,0 0.143537,0.04244 0.242997,0.09431 0.09946,0.05187 0.223453,0.09466 0.275539,0.09509 0.05209,4.42e-4 0.176057,0.04321 0.27549,0.09507 0.263338,0.13734 2.559914,0.820127 3.733552,1.11001 1.130588,0.27925 2.449362,0.552194 3.630236,0.751343 0.812207,0.136975 0.890993,0.149304 1.410457,0.220724 0.168077,0.02311 0.352745,0.05085 0.410375,0.06164 0.05762,0.01079 0.275235,0.03876 0.483579,0.06215 0.435697,0.04892 0.750069,0.08564 1.095434,0.127982 0.530608,0.06505 1.285836,0.132118 2.155994,0.191468 0.739318,0.05043 2.208364,0.05022 2.55549,-3.79e-4 0.377804,-0.05505 0.519351,-0.0782 0.727506,-0.119005 0.08681,-0.01702 0.25423,-0.04607 0.372045,-0.06457 0.177175,-0.02782 0.372721,-0.0809 0.95378,-0.258939 0.01736,-0.0053 0.116799,-0.03127 0.220971,-0.05767 0.963597,-0.244178 3.212115,-1.153297 4.716768,-1.907081 0.545514,-0.273281 1.113725,-0.557789 1.262691,-0.632238 0.148972,-0.07445 0.301455,-0.163307 0.338843,-0.197463 0.03739,-0.03416 0.129729,-0.0817 0.205187,-0.105646 0.07546,-0.02395 0.137204,-0.07004 0.137204,-0.102427 0,-0.03238 0.02131,-0.05304 0.04735,-0.0459 0.02604,0.0071 0.143303,-0.03808 0.260575,-0.100478 l 0.213218,-0.113458 -0.04794,0.305665 c -0.02636,0.168116 -0.05719,0.362486 -0.06851,0.431934 -0.01132,0.06945 -0.07594,0.33293 -0.1436,0.585514 -0.150348,0.561292 -0.138062,0.51964 -0.205976,0.698259 -0.03081,0.08104 -0.04115,0.171414 -0.02297,0.200825 0.01818,0.02941 0.0037,0.07161 -0.03215,0.09377 -0.03585,0.02216 -0.05006,0.06478 -0.03157,0.0947 0.01849,0.02992 0.0043,0.07254 -0.03157,0.0947 -0.03585,0.02216 -0.04885,0.06674 -0.02887,0.09907 0.01998,0.03232 0.0032,0.05877 -0.03729,0.05877 -0.04049,0 -0.05796,0.04078 -0.03884,0.09062 0.01913,0.04984 0.01443,0.09956 -0.01045,0.110486 -0.06193,0.02719 -0.528929,1.129472 -0.536701,1.26677 -0.0034,0.06077 -0.03025,0.110485 -0.05958,0.110485 -0.02933,0 -0.03577,0.02841 -0.01431,0.06313 0.02146,0.03472 0.0073,0.06313 -0.03157,0.06313 -0.03882,0 -0.05303,0.02841 -0.03157,0.06313 0.02146,0.03472 0.01085,0.06313 -0.02359,0.06313 -0.06279,0 -0.170217,0.242643 -0.146756,0.331456 0.0069,0.02604 -0.01758,0.04735 -0.05435,0.04735 -0.03678,0 -0.0493,0.02841 -0.02784,0.06314 0.02146,0.03472 0.01299,0.06313 -0.01883,0.06313 -0.0716,0 -0.808532,1.258141 -0.784567,1.33947 0.0095,0.03238 -0.01177,0.04088 -0.04735,0.01889 -0.06172,-0.03814 -0.09419,0.05328 -0.06692,0.188438 0.007,0.03472 -0.0077,0.04267 -0.03274,0.01766 -0.02501,-0.02501 -0.159263,0.117042 -0.298342,0.315673 -0.139079,0.198631 -0.418166,0.563514 -0.620196,0.81085 -0.202037,0.247337 -0.347152,0.474621 -0.322485,0.505077 0.02467,0.03046 0.02226,0.03752 -0.0054,0.0157 -0.05884,-0.0465 -0.770551,0.681305 -0.770551,0.787981 0,0.03984 -0.04262,0.07374 -0.0947,0.07531 -0.05209,0.0016 -0.0869,0.0392 -0.07735,0.08361 0.0095,0.04441 -0.0064,0.06604 -0.03551,0.04808 -0.02907,-0.01797 -0.229103,0.150385 -0.444511,0.374114 -0.215415,0.22373 -0.417553,0.406781 -0.449209,0.406781 -0.03165,0 -0.109324,0.06392 -0.17261,0.142052 -0.06329,0.07813 -0.239046,0.226287 -0.390575,0.329241 -0.151536,0.102952 -0.289459,0.223534 -0.306506,0.267958 -0.01705,0.04442 -0.05448,0.06625 -0.0832,0.04851 -0.02871,-0.01774 -0.0922,0.02485 -0.1411,0.09466 -0.04889,0.06981 -0.102164,0.113661 -0.118371,0.09745 -0.01621,-0.01621 -0.11856,0.0519 -0.227455,0.151355 -0.108888,0.09945 -0.213154,0.165653 -0.231697,0.147106 -0.01855,-0.01855 -0.05157,0.0128 -0.07339,0.06965 -0.02182,0.05686 -0.06531,0.08753 -0.09663,0.06817 -0.03133,-0.01936 -0.07395,0.009 -0.0947,0.06314 -0.02076,0.05409 -0.06337,0.0825 -0.0947,0.06313 -0.03133,-0.01936 -0.07395,0.009 -0.0947,0.06314 -0.02076,0.05409 -0.06143,0.0837 -0.09038,0.06581 -0.02895,-0.01789 -0.07825,0.01323 -0.109545,0.06915 -0.0313,0.05593 -0.07789,0.09517 -0.103546,0.08719 -0.06607,-0.02053 -0.541789,0.253747 -0.541789,0.312368 0,0.02671 -0.03551,0.04948 -0.07892,0.05059 -0.125839,0.0032 -1.057503,0.52869 -1.057503,0.596448 0,0.03376 -0.02841,0.04382 -0.06314,0.02236 -0.03472,-0.02146 -0.06313,-0.0073 -0.06313,0.03157 0,0.03882 -0.02841,0.05303 -0.06313,0.03157 -0.03472,-0.02146 -0.06313,-0.0073 -0.06313,0.03157 0,0.03882 -0.02841,0.05303 -0.06314,0.03157 -0.03472,-0.02146 -0.06313,-0.0073 -0.06313,0.03157 0,0.03882 -0.02841,0.05303 -0.06314,0.03157 -0.03472,-0.02146 -0.06313,-0.0073 -0.06313,0.03157 0,0.03882 -0.02841,0.05303 -0.06314,0.03157 -0.03472,-0.02146 -0.06313,-0.01367 -0.06313,0.01732 0,0.03099 -0.04168,0.05634 -0.09263,0.05634 -0.118371,0 -0.601849,0.216684 -0.601849,0.269736 0,0.02206 -0.04972,0.04419 -0.110486,0.04917 -0.06077,0.005 -0.280948,0.08498 -0.489292,0.177767 -0.208344,0.09279 -0.535066,0.226831 -0.726048,0.297868 -0.190981,0.07104 -0.368112,0.160449 -0.393624,0.198692 -0.02551,0.03824 -0.04682,0.04475 -0.04735,0.01445 -6.32e-4,-0.0303 -0.04358,-0.01971 -0.09567,0.02351 -0.05209,0.04323 -0.0947,0.06271 -0.0947,0.0433 0,-0.03064 -0.936089,0.263511 -1.199556,0.376941 -0.05209,0.02242 -0.123112,0.04759 -0.157836,0.05592 -0.03472,0.0083 -0.233598,0.05922 -0.441942,0.113085 -0.208344,0.05386 -0.611187,0.133946 -0.89521,0.177957 -0.284023,0.04401 -0.50692,0.09537 -0.495322,0.114133 0.01159,0.01876 -0.09695,0.03731 -0.241212,0.04122 -0.144262,0.0039 -0.404345,0.02264 -0.577965,0.04163 -0.842404,0.09213 -1.521668,0.159075 -2.051872,0.202211 -0.190982,0.01554 -0.546114,0.04451 -0.789182,0.06438 -1.345858,0.110023 -2.281869,0.175129 -3.598668,0.25031 -0.34724,0.01982 -0.901246,0.05176 -1.231124,0.07097 -0.329878,0.01921 -0.904908,0.03114 -1.277845,0.0265 -0.372938,-0.0046 -0.705005,0.0082 -0.737927,0.02857 -0.0501,0.03096 -6.181253,0.08609 -6.212777,0.05586 z"
       id="path862"
       inkscape:connector-curvature="0"
       transform="scale(0.26458333)"
       sodipodi:nodetypes="ccccscssscsscsscsccscccccccccccccccccscccscscccscccccccccccssssssscccccccsccssssccccccsscccscccsccssccsscscssccsscssscscscccccccscscsccssssscscscscscssssccscccscccccsccscccccccccsccssscsccssccssccccccccsccccccsccccccccscccccscsccscccccccccscccccccccccccsscsssssccccccscccccccccscccscccccccccccccccccsccccsccccccccccccscccscssccccsccsssccscsccccsssccscsssscccsssssccccscssccssccccccccccccccsccccccccssccscccssssscscsccccscccsccccscccccccccccccsccscscssscscscssscccsccsccccccccccscccc" />
    <path
       style="fill:#e2e2df;fill-opacity:1;stroke:#ffffff;stroke-width:0;stroke-miterlimit:4;stroke-dasharray:none;stroke-opacity:1"
       d="m 62.772364,64.582138 c -0.0081,-0.0063 -0.456773,-0.0382 -0.996951,-0.07086 -0.540179,-0.03267 -1.08259,-0.07382 -1.205357,-0.09145 -0.122768,-0.01763 -0.424108,-0.05955 -0.669643,-0.09316 -0.820683,-0.112324 -1.090079,-0.165149 -1.540179,-0.302007 -0.159598,-0.04853 -0.290178,-0.06992 -0.290178,-0.04753 0,0.02239 -0.120115,-0.02141 -0.266922,-0.09733 -0.146807,-0.07592 -0.277387,-0.133501 -0.290178,-0.127965 -0.09557,0.04136 -0.602902,-0.281998 -0.808893,-0.515569 -0.138682,-0.157249 -0.340075,-0.31316 -0.447542,-0.346469 -0.107466,-0.03331 -0.356108,-0.130979 -0.552537,-0.217045 -0.196428,-0.08607 -0.779018,-0.307759 -1.294643,-0.49265 -0.515625,-0.184891 -1.058035,-0.386684 -1.205357,-0.448428 -0.147321,-0.06174 -0.508928,-0.193004 -0.803571,-0.291689 -0.294643,-0.09869 -1.299107,-0.445533 -2.232143,-0.770773 -2.231351,-0.777812 -7.45101,-2.422807 -8.973214,-2.827943 -0.171875,-0.04574 -0.372768,-0.10057 -0.446429,-0.121834 -0.07366,-0.02126 -0.388083,-0.100705 -0.698716,-0.176536 -0.310633,-0.07583 -0.913312,-0.2358 -1.339286,-0.355485 -0.425974,-0.119687 -0.903404,-0.203041 -1.075279,-0.232976 -0.171875,-0.02993 -0.357382,-0.108825 -0.374044,-0.156211 0,0 -0.09088,-0.154561 -0.160157,-0.223837 -0.06928,-0.06928 -0.168924,-0.157287 -0.168924,-0.209901 -0.194289,-0.115114 -0.218242,-0.369732 -0.32895,-0.504416 -0.120154,-0.244773 -0.210136,-0.507541 -0.252478,-0.507541 -0.02544,-0.09207 -0.08921,-0.183898 -0.13726,-0.282956 -0.168459,-0.272851 -0.285976,-0.596134 -0.400168,-0.877754 -0.05197,0 -0.06805,-0.02644 -0.03574,-0.05875 0.03231,-0.03231 0.014,-0.11267 -0.04069,-0.178571 -0.05469,-0.0659 -0.07543,-0.119823 -0.04608,-0.119823 0.02935,0 0.0082,-0.110491 -0.04697,-0.245535 -0.05519,-0.135045 -0.109657,-0.559313 -0.121047,-0.942817 -0.02102,-0.707839 -0.007,-0.756021 0.476212,-1.635386 0.06406,-0.116587 0.172558,-0.211976 0.241099,-0.211976 0.06854,0 0.15675,-0.05022 0.196021,-0.111607 0.03927,-0.06138 0.34641,-0.252232 0.682531,-0.424107 0.336122,-0.171875 0.729017,-0.453125 0.873101,-0.625 0.309498,-0.369197 0.524697,-1.029138 0.524697,-1.609066 0,-0.99275 -0.602174,-2.525022 -1.536411,-3.909502 -0.437159,-0.647841 -0.443258,-0.652604 -0.656699,-0.512753 -0.339283,0.222307 -1.85916,1.284958 -1.963421,1.372764 -0.05172,0.04355 -0.2727,0.195485 -0.491072,0.337624 -0.218372,0.142138 -0.474435,0.328285 -0.56903,0.413661 -0.09459,0.08538 -0.245263,0.178486 -0.334821,0.20691 -0.08956,0.02842 -0.162832,0.08915 -0.162832,0.13495 0,0.0458 -0.06027,0.08327 -0.133928,0.08327 -0.07366,0 -0.133929,0.03104 -0.133929,0.06898 0,0.03794 -0.140625,0.144713 -0.3125,0.237274 -0.171875,0.09256 -0.3125,0.202144 -0.3125,0.243518 0,0.04137 -0.06027,0.07523 -0.133928,0.07523 -0.07366,0 -0.133929,0.03104 -0.133929,0.06898 0,0.03794 -0.140625,0.144713 -0.3125,0.237274 -0.171875,0.09256 -0.3125,0.193007 -0.3125,0.223214 0,0.03021 -0.140625,0.130654 -0.3125,0.223215 -0.171875,0.09256 -0.3125,0.202143 -0.3125,0.243518 0,0.04137 -0.06027,0.07522 -0.133928,0.07522 -0.07366,0 -0.133929,0.03104 -0.133929,0.06898 0,0.03794 -0.140625,0.144713 -0.3125,0.237274 -0.171875,0.09256 -0.3125,0.193007 -0.3125,0.223214 0,0.03021 -0.140625,0.130654 -0.3125,0.223214 -0.171875,0.09256 -0.3125,0.202144 -0.3125,0.243518 0,0.04137 -0.06027,0.07523 -0.133929,0.07523 -0.07366,0 -0.133928,0.03747 -0.133928,0.08327 0,0.0458 -0.07327,0.106526 -0.162831,0.13495 -0.08956,0.02842 -0.240228,0.122139 -0.334822,0.208255 -0.09459,0.08612 -0.344969,0.255141 -0.526947,0.520749 l 1.75e-4,0.328661 5.8e-5,0.245953 c 0.188778,0.326972 0.14272,0.25052 0.533295,0.586028 0.389156,0.334288 2.193553,2.140307 2.455358,2.457565 0.200461,0.242919 0.457076,0.550653 0.712899,0.854908 0.04987,0.05931 0.09067,0.126783 0.09067,0.149937 0,0.07879 0.7449,1.170659 0.819049,1.200558 0.0406,0.01637 0.07381,0.08381 0.07381,0.149872 0,0.06606 0.05094,0.173205 0.113189,0.238096 0.06225,0.06489 0.188892,0.288744 0.281417,0.497449 0.09253,0.208705 0.204676,0.379464 0.249224,0.379464 0.04455,0 0.05616,0.04018 0.02581,0.08929 -0.03035,0.04911 -0.01026,0.08929 0.04464,0.08929 0.0549,0 0.07499,0.04018 0.04464,0.08928 -0.03035,0.04911 -0.01026,0.08929 0.04464,0.08929 0.0549,0 0.07499,0.04018 0.04464,0.08929 -0.03035,0.04911 -0.01026,0.08929 0.04464,0.08929 0.0549,0 0.07499,0.04018 0.04464,0.08928 -0.03035,0.04911 -0.01263,0.08929 0.03937,0.08929 0.05201,0 0.0864,0.03013 0.07643,0.06696 -0.03352,0.123857 0.231672,0.736607 0.318798,0.736607 0.04743,0 0.06086,0.02537 0.02985,0.05638 -0.03101,0.03101 -0.0095,0.141501 0.04779,0.245535 0.0573,0.104035 0.112159,0.229332 0.121922,0.27844 0.0098,0.04911 0.06859,0.209821 0.130741,0.357142 0.06215,0.147322 0.12138,0.297992 0.131634,0.334822 0.01025,0.03683 0.02869,0.08705 0.04096,0.111607 0.01228,0.02455 0.03237,0.08482 0.04464,0.133929 0.01228,0.04911 0.03237,0.109375 0.04464,0.133928 0.01228,0.02455 0.02796,0.07478 0.03485,0.111607 0.0069,0.03683 0.04442,0.117188 0.08339,0.178572 0.03898,0.06138 0.04787,0.111607 0.01976,0.111607 -0.02811,0 0.0076,0.140625 0.07946,0.3125 0.07181,0.171875 0.115076,0.3125 0.09614,0.3125 -0.01894,0 0.03673,0.256622 0.123698,0.570272 0.190045,0.68536 0.180786,1.388934 -0.02236,1.69897 -0.143447,0.218928 -0.584157,0.50536 -0.861368,0.55983 -0.126032,0.02476 -0.538385,0.04736 -3.02477,0.16577 -0.831756,0.03961 -5.341543,0.105448 -5.911721,0.07086 -0.220648,-0.01338 -0.04043,-0.129888 0.408781,-1.05958 0.384456,-0.795682 0.709382,-2.098665 0.801938,-2.529457 0,0 -0.03521,-0.466111 0.01346,-0.894423 0.07963,-1.395357 -0.0092,-1.679987 -0.607262,-3.827765 -0.783568,-2.814146 -6.71327,-5.003462 -9.290193,-4.437475 -0.559475,0.122881 -1.065356,0.400804 -1.530785,0.840987 -0.549791,0.519969 -0.514537,0.513837 -2.377263,0.413527 -1.368241,-0.07368 -1.530399,-0.112512 -1.580381,-0.378442 -0.04777,-0.254152 -0.04083,-1.389725 0.0099,-1.624182 0.09085,-0.419668 0.640418,-1.490844 0.92234,-1.797747 0.159545,-0.173681 0.290273,-0.347257 0.290508,-0.385724 5.18e-4,-0.08528 0.557056,-0.649943 0.6886,-0.698661 0.05193,-0.01923 0.269902,-0.187614 0.484375,-0.374178 0.429373,-0.3735 1.80325,-1.281528 2.064406,-1.364416 0.108226,-0.03435 0.246142,0.02844 0.399658,0.181958 0.294931,0.29493 1.194992,1.149457 1.877933,1.245332 0.984849,0.138259 2.27106,0.01238 2.724112,0.09679 3.412356,-0.01015 4.077479,0.142622 7.262781,-0.214904 1.268241,-0.142351 2.323457,-0.856295 3.331851,-1.530799 0.901906,-0.603275 2.403497,-1.985995 2.918256,-2.687237 0.305474,-0.416139 0.319204,-0.39 0.184526,-0.595543 -1.001791,-0.845254 -1.531479,-1.201435 -3.827813,-1.165798 -1.86755,0.02898 -2.36336,0.350738 -10.429687,0.350738 0,0 -0.599161,-0.25554 -0.476396,-2.459057 0.137524,-2.468499 0.08294,-7.825737 -0.104434,-10.249154 -0.01978,-0.255822 -0.0593,-0.786561 -0.08781,-1.179418 -0.05735,-0.790057 -0.107927,-1.36923 -0.181283,-2.075893 -0.02676,-0.257812 -0.01614,-0.46875 0.02361,-0.46875 0.08917,0 0.558463,0.526665 0.558463,0.626741 0,0.03997 0.03148,0.08606 0.06997,0.102426 0.03848,0.01637 0.255358,0.272491 0.481948,0.569159 3.151995,4.126837 8.389634,7.723424 14.948725,10.265007 2.837137,1.099362 8.054263,2.578351 10.74936,3.047308 0.122767,0.02136 0.645089,0.116676 1.160714,0.211808 0.515625,0.09513 1.319196,0.234418 1.785714,0.309524 0.466518,0.07511 0.948661,0.153933 1.071429,0.175172 0.31802,0.05502 0.778505,0.120999 1.294643,0.185503 0.245535,0.03068 0.546875,0.0725 0.669642,0.09292 0.122768,0.02042 0.508504,0.06229 0.857192,0.09305 l 0.633976,0.05591 0.348166,-0.612801 c 0.191491,-0.33704 0.364058,-0.65043 0.383481,-0.696422 0.11051,-0.26168 1.229979,-1.39044 1.541177,-1.55397 0.321166,-0.168767 1.41458,-0.169337 1.41458,-7.14e-4 0,0.03509 0.07499,0.08759 0.166636,0.116683 0.212794,0.06754 0.798033,0.639941 1.084975,1.061178 0.121882,0.178925 0.251737,0.325593 0.288567,0.325929 0.03683,3.57e-4 0.06697,0.05801 0.06697,0.128161 0,0.07015 0.05022,0.181597 0.111607,0.247653 0.06138,0.06606 0.448223,0.796479 0.859642,1.62316 0.709936,1.426501 0.791793,1.54872 1.607143,2.399587 0.745614,0.778093 1.688126,1.609653 2.427906,2.1421 0.470743,0.33881 1.488161,1.021828 1.607987,1.079483 0.06973,0.03355 0.247322,0.138336 0.394643,0.232854 0.480604,0.308343 2.64864,1.352498 3.73826,1.800394 3.594364,1.477492 8.363396,2.558763 13.181383,2.988587 0.270089,0.02409 0.690759,0.06294 0.934822,0.08633 0.593283,0.05684 2.741947,0.06101 2.907179,0.0056 0.07217,-0.02419 0.302787,-0.06542 0.512487,-0.09163 0.572289,-0.07154 2.426691,-0.621866 3.636584,-1.079221 1.338797,-0.506081 4.686223,-2.15048 4.98419,-2.448447 0.226654,-0.226655 0.271001,0.03342 0.105397,0.618118 -0.02086,0.07366 -0.05754,0.234375 -0.0815,0.357143 -0.08775,0.449524 -0.132891,0.627293 -0.177711,0.699815 -0.0252,0.04078 -0.06941,0.208004 -0.09823,0.371614 -0.02882,0.16361 -0.08018,0.341032 -0.114122,0.394271 -0.03394,0.05324 -0.06735,0.126934 -0.07424,0.163765 -0.0069,0.03683 -0.02257,0.08705 -0.03485,0.111607 -0.01228,0.02455 -0.03098,0.07478 -0.04155,0.111607 -0.01058,0.03683 -0.09171,0.227678 -0.180289,0.424107 -0.08858,0.196429 -0.161959,0.407366 -0.163061,0.46875 -0.0011,0.06138 -0.03548,0.111607 -0.07641,0.111607 -0.04092,-2.4e-5 -0.0744,0.0502 -0.0744,0.111595 0,0.06139 -0.216441,0.503354 -0.48098,0.982143 -0.26454,0.478788 -0.457753,0.870524 -0.429364,0.870524 0.02839,0 -0.02638,0.05899 -0.121698,0.131089 -0.09532,0.0721 -0.133137,0.132982 -0.08403,0.135296 0.05911,0.0028 0.05894,0.02638 -5.35e-4,0.0698 -0.151387,0.110614 -0.857878,1.092383 -0.786062,1.092383 0.03707,0 -0.0219,0.06255 -0.131036,0.138991 -0.109141,0.07645 -0.198438,0.173802 -0.198438,0.216347 0,0.08701 -0.176791,0.282958 -1.220303,1.352558 -0.660914,0.677437 -0.972515,0.964234 -1.707921,1.571968 -0.13278,0.109728 -0.289947,0.240309 -0.349257,0.290178 -0.05931,0.04987 -0.14008,0.09067 -0.179484,0.09067 -0.03941,0 -0.179972,0.100447 -0.312372,0.223215 -0.1324,0.122768 -0.282659,0.223214 -0.333909,0.223214 -0.05125,0 -0.09364,0.03013 -0.09421,0.06696 -5.35e-4,0.03683 -0.161277,0.143741 -0.357143,0.237579 -0.195865,0.09384 -0.356118,0.204329 -0.356118,0.245536 0,0.04121 -0.0574,0.07492 -0.127551,0.07492 -0.07015,0 -0.189254,0.0617 -0.264669,0.137117 -0.07541,0.07541 -0.158436,0.136105 -0.184493,0.134868 -0.116047,-0.0055 -0.851859,0.396454 -0.851859,0.465361 0,0.04222 -0.04018,0.05193 -0.08929,0.02158 -0.04911,-0.03035 -0.08929,-0.01026 -0.08929,0.04464 0,0.0549 -0.04018,0.07499 -0.08929,0.04464 -0.04911,-0.03035 -0.08929,-0.01026 -0.08929,0.04464 0,0.0549 -0.04018,0.07499 -0.08929,0.04464 -0.04911,-0.03035 -0.08929,-0.01026 -0.08929,0.04464 0,0.0549 -0.04018,0.07499 -0.08929,0.04464 -0.04911,-0.03035 -0.08929,-0.0059 -0.08929,0.05425 0,0.06019 -0.02506,0.08437 -0.0557,0.05374 -0.03063,-0.03063 -0.221482,0.02888 -0.424107,0.13225 -0.202625,0.103371 -0.378875,0.181193 -0.391666,0.172936 -0.01279,-0.0083 -0.153416,0.05392 -0.3125,0.138176 -0.159084,0.08425 -0.33437,0.161122 -0.389527,0.170819 -0.05516,0.0097 -0.235959,0.07874 -0.401785,0.153421 -0.165826,0.07469 -0.462216,0.184671 -0.658645,0.244413 -0.196429,0.05974 -0.407366,0.148484 -0.46875,0.197204 -0.06138,0.04872 -0.111607,0.06574 -0.111607,0.03782 0,-0.02792 -0.231027,0.0307 -0.513393,0.130269 -0.282366,0.09957 -0.633929,0.201174 -0.78125,0.225789 -0.147321,0.02461 -0.302887,0.07847 -0.345702,0.119678 -0.04281,0.04121 -0.133216,0.05368 -0.200893,0.02771 -0.06768,-0.02597 -0.19336,-0.01903 -0.279298,0.01541 -0.08594,0.03445 -0.316964,0.0774 -0.513393,0.09544 -0.196428,0.01805 -0.497768,0.05043 -0.669643,0.07197 -0.283526,0.03553 -0.709914,0.07954 -1.875,0.193556 -0.56546,0.05533 -1.340857,0.115497 -2.276785,0.176656 -0.441965,0.02888 -1.064732,0.07165 -1.383929,0.09504 -2.133693,0.156351 -3.93653,0.215103 -7.395906,0.241021 -1.489623,0.01116 -2.71507,0.01513 -2.723214,0.0088 z"
       id="path864"
       inkscape:connector-curvature="0"
       transform="scale(0.26458333)"
       sodipodi:nodetypes="cccccssccccsccsccccccccccccscscccscccsscccccssscssscscssscsssssccscccccscsccssscssscscsscccccccccscscccccsccsssccccccsccscssscscccccssccsccccccccsccscccscsscccsccccsccccscccccccscscccscssccsssccssccsssssssssccccccccscccccccccsscc" />
    <path
       style="fill:#9c9c9c;fill-opacity:1;stroke:#ffffff;stroke-width:0.006;stroke-miterlimit:4;stroke-dasharray:none;stroke-opacity:1"
       d="m 17.802971,47.552524 c -0.273858,-0.02727 -0.680002,0.0068 -0.976682,-0.162335 -0.782311,-0.446056 -1.50786,-1.232346 -1.625849,-1.453752 -0.325405,-0.610624 -0.363802,-0.72157 -0.386163,-1.115784 -0.01967,-0.346727 0.0036,-0.481396 0.131518,-0.760776 0.319619,-0.69814 1.168569,-1.308937 2.443465,-1.758008 1.380936,-0.486423 1.572338,-0.517057 3.160063,-0.505769 1.866546,0.01327 5.704188,-0.122948 7.292039,-0.237726 2.768318,-0.200117 2.010653,-0.431316 4.542113,0.03707 0.44926,0.138914 1.249011,0.733787 1.461899,1.004429 0.122746,0.156047 0.167932,0.202038 0.0084,0.38384 -0.323563,0.558922 -1.998553,2.198134 -3.014475,2.902931 -0.911326,0.632233 -2.445992,1.419184 -3.002976,1.510198 -1.293008,0.211286 -2.495906,0.337654 -6.035243,0.328032 -1.947648,-0.0053 -3.789766,-0.1516 -3.99811,-0.17235 z"
       id="path880"
       inkscape:connector-curvature="0"
       transform="scale(0.26458333)"
       sodipodi:nodetypes="cscccssccccscccc" />
    <path
       style="fill:#9c9c9c;fill-opacity:1;stroke:#ffffff;stroke-width:0.00631345;stroke-miterlimit:4;stroke-dasharray:none;stroke-opacity:1"
       d="M 12.783775,67.135881 C 12.455723,66.979128 11.758921,66.235982 11.331117,65.586604 10.41631,64.197991 9.8721992,62.677186 9.5863461,60.709918 9.4508265,59.77726 9.4327269,57.325155 9.5537251,56.290501 c 0.171219,-1.464093 0.8577369,-4.484899 1.0376329,-4.775321 0.08499,-0.137207 0.03753,0.326126 0.07319,0.551331 0.01563,0.09868 0.03374,0.281677 0.0702,0.386265 0.06147,0.176341 0.06706,0.165755 0.425756,0.203247 0.212745,0.02224 0.949018,0.02782 1.666979,0.08575 l 1.361648,0.03035 -0.04829,0.23745 c -0.169105,0.993479 -0.684824,4.877309 -0.787032,6.213514 -0.126787,1.657522 -0.07063,2.249077 0.265347,2.795107 0.324415,0.527242 0.375926,0.795248 0.409877,2.13255 0.04531,1.78485 -0.155676,2.761929 -0.617239,3.000613 -0.22923,0.11854 -0.35397,0.115465 -0.628015,-0.01548 z"
       id="path882"
       inkscape:connector-curvature="0"
       transform="scale(0.26458333)"
       sodipodi:nodetypes="ccsssscccccsccccc" />
    <path
       style="fill:#9c9c9c;fill-opacity:1;stroke:#ffffff;stroke-width:0.00631345;stroke-miterlimit:4;stroke-dasharray:none;stroke-opacity:1"
       d="m 18.85645,69.7974 c -0.645645,-0.173752 -1.051575,-0.586676 -1.175897,-1.196159 -0.03852,-0.188845 -0.03584,-0.190905 0.483783,-0.371838 2.760141,-0.961083 4.927011,-2.190693 6.223091,-3.531349 l 0.460406,-0.476241 3.34345,-0.02023 c 1.838897,-0.01113 3.359074,-0.09399 3.359074,-0.08864 0,0.0053 -0.491502,0.399119 -1.073128,0.779571 -5.667696,3.707331 -9.718111,5.416927 -11.620779,4.904891 z"
       id="path884"
       inkscape:connector-curvature="0"
       transform="scale(0.26458333)"
       sodipodi:nodetypes="scssccscs" />
    <path
       style="fill:#9c9c9c;fill-opacity:1;stroke:none;stroke-width:0.00631345;stroke-miterlimit:4;stroke-dasharray:none;stroke-opacity:1"
       d="m 56.820113,65.619444 c -0.138896,-0.09087 -0.962802,-0.635063 -1.830902,-1.209322 L 53.410848,63.366013 51.358976,62.65869 c -1.12853,-0.389027 -2.506441,-0.864626 -3.062025,-1.056885 -2.032325,-0.703285 -3.020271,-0.888431 -4.73509,-0.887378 -1.065755,6.57e-4 -1.363014,0.02258 -1.905931,0.140589 -1.710238,0.371734 -2.866719,1.054343 -4.881032,2.539313 -1.003247,0.496641 -1.202324,0.416535 -1.7199,0.380295 l -0.259728,-0.02526 c -0.503329,-0.136589 -0.02615,-0.576247 -0.03655,-1.117594 -0.0066,-0.699816 -0.680768,-2.930972 -1.218967,-4.139691 -0.811315,-1.822096 -1.643338,-3.309434 -2.698444,-4.623267 -0.472147,-0.587925 -1.978478,-2.18771 -2.163274,-2.305253 -0.0455,-0.02894 -0.280674,-0.261699 -0.556373,-0.505039 l -0.536427,-0.477591 -0.02344,-0.390153 c -0.02102,-0.349936 0.04305,-0.411875 0.24069,-0.586848 0.11734,-0.103885 0.146155,-0.302464 0.432524,-0.428265 0.266966,-0.182275 1.259165,-0.867667 2.255941,-1.539331 0.21418,-0.144322 0.61226,-0.421415 0.855328,-0.583836 0.243068,-0.162421 0.537072,-0.405148 0.586022,-0.451618 0.04895,-0.04647 0.256933,-0.135171 0.395822,-0.227597 0.13889,-0.09243 0.256302,-0.202458 0.334028,-0.254544 0.07773,-0.05209 0.77009,-0.653387 1.732835,-1.326197 0.962744,-0.672809 2.062646,-1.307097 2.122829,-1.322835 0.131176,-0.0343 0.380499,0.396049 0.896921,1.279452 0.427413,0.73114 0.646187,1.286018 0.873124,1.983632 0.139209,0.427932 0.202184,0.662064 0.207824,1.231765 0.01177,1.18918 -0.27856,1.689914 -1.361535,2.326973 -0.936041,0.550624 -1.028473,0.595761 -1.290606,1.026141 -0.390482,0.641107 -0.444965,1.316257 -0.173407,2.31776 0.06598,0.243335 0.192858,0.558661 0.262853,0.695952 0.06999,0.13729 0.123357,0.298065 0.123357,0.357277 0,0.05921 0.01741,0.121035 0.04346,0.13261 0.02604,0.01157 0.118007,0.220956 0.247333,0.470066 0.380596,0.73311 0.49023,0.918542 0.741021,1.25334 0.204928,0.273572 0.281916,0.340564 0.577783,0.402789 1.38148,0.290545 3.794825,0.940771 4.451334,1.135166 4.73668,1.402553 9.512043,3.000378 13.201978,4.408192 1.014006,0.386871 1.257992,0.546896 1.419589,0.773838 0.298583,0.419321 1.399887,0.776471 3.087987,1.028997 1.570431,0.234925 2.523687,0.309758 6.07104,0.28611 1.860314,-0.0124 3.347704,-0.09294 3.305311,-0.06926 -0.32509,0.181893 -4.151244,0.689136 -9.534776,1.124174 -2.435472,0.196808 -2.524896,0.19633 -2.848278,-0.01523 z"
       id="path886"
       inkscape:connector-curvature="0"
       transform="scale(0.26458333)"
       sodipodi:nodetypes="cscssccccccsscccsccsssccsccccssccscsssssssscscc" />
  </g>
</svg>
